# xmcd
#
# Track frame offsets:
#	150
#	14967
#	42212
#	60364
#	83292
#	97450
#	107542
#	124870
#	138975
#	152542
#	165570
#	174605
#	190970
#	196937
#	213137
#	225055
#	238290
#	249232
#	264147
#	270845
#	287285
#	296580
#	301060
#	310965
#	315332
#	320587
#	322862
#
# Disc length: 4385 seconds
# Revision: 0
# Processed by: cddbd v1.5.2PL0 Copyright (c) Steve Scherf et al.
# Submitted via: dBpowerAMP V12.0
#
DISCID=5c111f1b
DTITLE=Bach - Frz Suiten 1 and Kleine Präludien - Hewitt
DYEAR=1995
DGENRE=Classical
TTITLE0=Sonate, d-moll, BWV 964 - 1 Adagio
TTITLE1=Sonate, d-moll, BWV 964 - 2 Fuga: Allegro
TTITLE2=Sonate, d-moll, BWV 964 - 3 Andante
TTITLE3=Sonate, d-moll, BWV 964 - 4 Allegro
TTITLE4=Frz Suite 1, d-moll, BWV 812 - 1 Allemande
TTITLE5=Frz Suite 1, d-moll, BWV 812 - 2 Courante
TTITLE6=Frz Suite 1, d-moll, BWV 812 - 3 Sarabande
TTITLE7=Frz Suite 1, d-moll, BWV 812 - 4 Menuet I and II
TTITLE8=Frz Suite 1, d-moll, BWV 812 - 5 Gigue
TTITLE9=Frz Suite 2, c-moll, BWV 813 - 1 Allemande
TTITLE10=Frz Suite 2, c-moll, BWV 813 - 2 Courante
TTITLE11=Frz Suite 2, c-moll, BWV 813 - 3 Sarabande
TTITLE12=Frz Suite 2, c-moll, BWV 813 - 4 Air
TTITLE13=Frz Suite 2, c-moll, BWV 813 - 5 Menuet I and II
TTITLE14=Frz Suite 2, c-moll, BWV 813 - 6 Gigue
TTITLE15=Frz Suite 3, h-moll, BWV 814 - 1 Allemande
TTITLE16=Frz Suite 3, h-moll, BWV 814 - 2 Courante
TTITLE17=Frz Suite 3, h-moll, BWV 814 - 3 Sarabande
TTITLE18=Frz Suite 3, h-moll, BWV 814 - 4 Anglaise
TTITLE19=Frz Suite 3, h-moll, BWV 814 - 5 Menuet and Trio
TTITLE20=Frz Suite 3, h-moll, BWV 814 - 6 Gigue
TTITLE21=Präludium, C-Dur, BWV 924
TTITLE22=Präludium, g-moll, BWV 930
TTITLE23=Präludium, D-Dur, BWV 925
TTITLE24=Präludium,d-moll, BWV 926
TTITLE25=Präludium, F-Dur, BWV 927
TTITLE26=Präludium, F-Dur, BWV 928
EXTD=
EXTT0=
EXTT1=
EXTT2=
EXTT3=
EXTT4=
EXTT5=
EXTT6=
EXTT7=
EXTT8=
EXTT9=
EXTT10=
EXTT11=
EXTT12=
EXTT13=
EXTT14=
EXTT15=
EXTT16=
EXTT17=
EXTT18=
EXTT19=
EXTT20=
EXTT21=
EXTT22=
EXTT23=
EXTT24=
EXTT25=
EXTT26=
PLAYORDER=
